# xmcd
#
# Track frame offsets:
#	150
#	15340
#	30225
#	52270
#	62695
#	78282
#	90657
#	104297
#	117372
#	131297
#	146997
#
# Disc length: 2205 seconds
#
# Revision: 1
# Processed by: cddbd v1.4PL0 Copyright (c) Steve Scherf et al.
# Submitted via: audiograbber 1.80
#
DISCID=89089b0b
DTITLE=Ray Corvair Trio - Ray Corvair Trio
DYEAR=1900
DGENRE=
TTITLE0=Punta
TTITLE1=The Darkest Time of the Night
TTITLE2=Carl Needs a Pill
TTITLE3=The Bag
TTITLE4=The Body in the Trunk
TTITLE5=Crazy Doings
TTITLE6=Honduras
TTITLE7=Big Texas Surf
TTITLE8=Smoke
TTITLE9=The Spy Who Couldn't Get Any Action
TTITLE10=Theme From Ray
EXTD=
EXTT0=
EXTT1=
EXTT2=
EXTT3=
EXTT4=
EXTT5=
EXTT6=
EXTT7=
EXTT8=
EXTT9=
EXTT10=
PLAYORDER=
